M48
; DRILL file {KiCad 7.0.5} date Sun Mar 24 19:09:05 2024
; FORMAT={-:-/ absolute / metric / decimal}
; #@! TF.CreationDate,2024-03-24T19:09:05+04:00
; #@! TF.GenerationSoftware,Kicad,Pcbnew,7.0.5
; #@! TF.FileFunction,Plated,1,2,PTH
FMAT,2
METRIC
; #@! TA.AperFunction,Plated,PTH,ComponentDrill
T1C0.750
; #@! TA.AperFunction,Plated,PTH,ComponentDrill
T2C0.800
; #@! TA.AperFunction,Plated,PTH,ComponentDrill
T3C0.900
; #@! TA.AperFunction,Plated,PTH,ComponentDrill
T4C1.000
; #@! TA.AperFunction,Plated,PTH,ComponentDrill
T5C1.520
%
G90
G05
T1
X54.61Y88.9
X55.88Y88.9
X57.15Y88.9
X57.15Y152.4
X58.42Y152.4
X59.69Y152.4
X63.5Y114.3
X64.77Y114.3
X66.04Y114.3
T2
X41.91Y95.25
X41.91Y101.6
X44.45Y105.41
X44.45Y120.65
X44.45Y127.0
X44.45Y142.24
X44.45Y149.86
X44.45Y165.1
X50.8Y105.41
X50.8Y120.65
X50.8Y127.0
X50.8Y142.24
X50.8Y149.86
X50.8Y165.1
X57.15Y95.25
X57.15Y101.6
X57.15Y120.65
X57.15Y127.0
X57.15Y133.35
X57.15Y146.05
X60.96Y95.25
X69.85Y152.4
X69.85Y167.64
X72.39Y120.65
X72.39Y127.0
X72.39Y133.35
X72.39Y146.05
X76.2Y95.25
X76.2Y152.4
X76.2Y167.64
T3
X35.56Y146.05
X38.1Y88.9
X38.1Y120.65
X38.1Y146.05
X40.64Y88.9
X40.64Y120.65
T4
X57.15Y165.1
X58.42Y139.7
X59.69Y165.1
X60.96Y139.7
X62.23Y165.1
X63.5Y139.7
X64.77Y101.6
X67.31Y101.6
X69.85Y101.6
X82.55Y102.87
X82.55Y105.41
X82.55Y107.95
X82.55Y121.92
X82.55Y124.46
X82.55Y127.0
X82.55Y140.97
X82.55Y143.51
X82.55Y146.05
T5
X31.75Y83.82
X31.75Y88.9
X31.75Y128.27
X31.75Y133.35
X31.75Y158.75
X31.75Y163.83
X64.77Y177.8
X69.85Y177.8
T0
M30
